<svg width="1440" height="86" viewBox="0 0 1440 86" fill="none" xmlns="http://www.w3.org/2000/svg">
<path fill-rule="evenodd" clip-rule="evenodd" d="M0 0H1440V86H0V0Z" fill="white"/>
<path fill-rule="evenodd" clip-rule="evenodd" d="M1282.3 41.7997C1281.14 41.7997 1280.21 42.7447 1280.21 43.8997C1280.21 45.0546 1281.14 45.9996 1282.3 45.9996C1283.45 45.9996 1284.4 45.0546 1284.4 43.8997C1284.4 42.7447 1283.45 41.7997 1282.3 41.7997ZM1276 26.05C1276 26.6275 1276.47 27.1 1277.05 27.1H1278.1L1281.88 35.0693L1280.46 37.6313C1279.7 39.0383 1280.7 40.7497 1282.3 40.7497H1293.85C1294.43 40.7497 1294.9 40.2772 1294.9 39.6997C1294.9 39.1223 1294.43 38.6498 1293.85 38.6498H1282.3L1283.45 36.5498H1291.28C1292.06 36.5498 1292.76 36.1193 1293.11 35.4683L1296.87 28.6539C1297.26 27.9609 1296.76 27.1 1295.96 27.1H1280.42L1279.72 25.5985C1279.55 25.231 1279.17 25 1278.77 25H1277.05C1276.47 25 1276 25.4725 1276 26.05ZM1292.8 41.7997C1291.64 41.7997 1290.71 42.7447 1290.71 43.8997C1290.71 45.0546 1291.64 45.9996 1292.8 45.9996C1293.95 45.9996 1294.9 45.0546 1294.9 43.8997C1294.9 42.7447 1293.95 41.7997 1292.8 41.7997Z" fill="#8B96A5"/>
<path d="M1265.34 54.2727H1266.6L1269.57 61.517H1269.67L1272.64 54.2727H1273.9V63H1272.91V56.3693H1272.82L1270.1 63H1269.14L1266.42 56.3693H1266.33V63H1265.34V54.2727ZM1276.53 65.4545C1276.36 65.4545 1276.21 65.4403 1276.07 65.4119C1275.94 65.3864 1275.85 65.3608 1275.8 65.3352L1276.05 64.4489C1276.3 64.5114 1276.51 64.5341 1276.7 64.517C1276.89 64.5 1277.05 64.4162 1277.2 64.2656C1277.35 64.1179 1277.48 63.8778 1277.6 63.5455L1277.79 63.0341L1275.37 56.4545H1276.46L1278.27 61.6705H1278.34L1280.14 56.4545H1281.23L1278.46 63.9545C1278.33 64.2926 1278.18 64.5724 1277.99 64.794C1277.81 65.0185 1277.59 65.1847 1277.35 65.2926C1277.11 65.4006 1276.83 65.4545 1276.53 65.4545ZM1288.6 63.1364C1287.98 63.1364 1287.45 62.9915 1287.01 62.7017C1286.57 62.4119 1286.23 62.0128 1285.99 61.5043C1285.75 60.9957 1285.63 60.4148 1285.63 59.7614C1285.63 59.0966 1285.75 58.5099 1286 58.0014C1286.24 57.4901 1286.59 57.0909 1287.03 56.804C1287.47 56.5142 1287.99 56.3693 1288.58 56.3693C1289.04 56.3693 1289.45 56.4545 1289.82 56.625C1290.19 56.7955 1290.49 57.0341 1290.73 57.3409C1290.97 57.6477 1291.11 58.0057 1291.17 58.4148H1290.16C1290.09 58.1165 1289.92 57.8523 1289.65 57.6222C1289.39 57.3892 1289.04 57.2727 1288.6 57.2727C1288.2 57.2727 1287.86 57.375 1287.56 57.5795C1287.27 57.7812 1287.04 58.0668 1286.88 58.4361C1286.72 58.8026 1286.63 59.233 1286.63 59.7273C1286.63 60.233 1286.71 60.6733 1286.87 61.0483C1287.04 61.4233 1287.26 61.7145 1287.56 61.9219C1287.85 62.1293 1288.2 62.233 1288.6 62.233C1288.86 62.233 1289.09 62.1875 1289.31 62.0966C1289.52 62.0057 1289.7 61.875 1289.85 61.7045C1290 61.5341 1290.1 61.3295 1290.16 61.0909H1291.17C1291.11 61.4773 1290.97 61.8253 1290.75 62.1349C1290.53 62.4418 1290.23 62.6861 1289.87 62.8679C1289.5 63.0469 1289.08 63.1364 1288.6 63.1364ZM1294.57 63.1534C1294.15 63.1534 1293.77 63.0753 1293.44 62.919C1293.1 62.7599 1292.83 62.5312 1292.63 62.233C1292.43 61.9318 1292.33 61.5682 1292.33 61.142C1292.33 60.767 1292.41 60.4631 1292.55 60.2301C1292.7 59.9943 1292.9 59.8097 1293.15 59.6761C1293.39 59.5426 1293.67 59.4432 1293.96 59.3778C1294.27 59.3097 1294.57 59.2557 1294.87 59.2159C1295.27 59.1648 1295.59 59.1264 1295.84 59.1009C1296.09 59.0724 1296.27 59.0256 1296.38 58.9602C1296.5 58.8949 1296.56 58.7812 1296.56 58.6193V58.5852C1296.56 58.1648 1296.44 57.8381 1296.21 57.6051C1295.99 57.3722 1295.64 57.2557 1295.18 57.2557C1294.7 57.2557 1294.32 57.3608 1294.05 57.571C1293.78 57.7812 1293.59 58.0057 1293.47 58.2443L1292.52 57.9034C1292.69 57.5057 1292.92 57.196 1293.2 56.9744C1293.49 56.75 1293.8 56.5937 1294.14 56.5057C1294.48 56.4148 1294.82 56.3693 1295.14 56.3693C1295.36 56.3693 1295.6 56.3949 1295.87 56.446C1296.14 56.4943 1296.41 56.5952 1296.67 56.7486C1296.92 56.902 1297.14 57.1335 1297.31 57.4432C1297.48 57.7528 1297.57 58.1676 1297.57 58.6875V63H1296.56V62.1136H1296.51C1296.44 62.2557 1296.33 62.4077 1296.17 62.5696C1296.01 62.7315 1295.8 62.8693 1295.53 62.983C1295.27 63.0966 1294.95 63.1534 1294.57 63.1534ZM1294.72 62.25C1295.12 62.25 1295.45 62.1719 1295.72 62.0156C1296 61.8594 1296.21 61.6577 1296.35 61.4105C1296.49 61.1634 1296.56 60.9034 1296.56 60.6307V59.7102C1296.52 59.7614 1296.42 59.8082 1296.28 59.8509C1296.14 59.8906 1295.97 59.9261 1295.78 59.9574C1295.6 59.9858 1295.42 60.0114 1295.24 60.0341C1295.07 60.054 1294.93 60.071 1294.82 60.0852C1294.56 60.1193 1294.32 60.1747 1294.09 60.2514C1293.86 60.3253 1293.68 60.4375 1293.54 60.5881C1293.41 60.7358 1293.34 60.9375 1293.34 61.1932C1293.34 61.5426 1293.47 61.8068 1293.73 61.9858C1293.99 62.1619 1294.32 62.25 1294.72 62.25ZM1299.4 63V56.4545H1300.37V57.4432H1300.44C1300.56 57.1193 1300.78 56.8565 1301.09 56.6548C1301.4 56.4531 1301.75 56.3523 1302.15 56.3523C1302.22 56.3523 1302.31 56.3537 1302.42 56.3565C1302.53 56.3594 1302.62 56.3636 1302.67 56.3693V57.392C1302.64 57.3835 1302.56 57.3707 1302.44 57.3537C1302.32 57.3338 1302.19 57.3239 1302.06 57.3239C1301.74 57.3239 1301.46 57.3906 1301.21 57.5241C1300.96 57.6548 1300.76 57.8366 1300.62 58.0696C1300.48 58.2997 1300.41 58.5625 1300.41 58.858V63H1299.4ZM1307.12 56.4545V57.3068H1303.73V56.4545H1307.12ZM1304.72 54.8864H1305.72V61.125C1305.72 61.4091 1305.77 61.6222 1305.85 61.7642C1305.93 61.9034 1306.04 61.9972 1306.17 62.0455C1306.31 62.0909 1306.45 62.1136 1306.59 62.1136C1306.7 62.1136 1306.8 62.108 1306.87 62.0966C1306.94 62.0824 1306.99 62.071 1307.04 62.0625L1307.24 62.9659C1307.17 62.9915 1307.08 63.017 1306.96 63.0426C1306.83 63.071 1306.68 63.0852 1306.49 63.0852C1306.21 63.0852 1305.93 63.0241 1305.66 62.902C1305.39 62.7798 1305.16 62.5938 1304.98 62.3438C1304.81 62.0938 1304.72 61.7784 1304.72 61.3977V54.8864Z" fill="#8B96A5"/>
<path fill-rule="evenodd" clip-rule="evenodd" d="M1228.35 43.13C1227.59 43.82 1226.42 43.82 1225.66 43.12L1225.55 43.02C1220.3 38.27 1216.87 35.16 1217 31.28C1217.06 29.58 1217.93 27.95 1219.34 26.99C1221.98 25.19 1225.24 26.03 1227 28.09C1228.76 26.03 1232.02 25.18 1234.66 26.99C1236.07 27.95 1236.94 29.58 1237 31.28C1237.14 35.16 1233.7 38.27 1228.45 43.04L1228.35 43.13Z" fill="#8B96A5"/>
<path d="M1215.63 58.6364C1215.63 59.5568 1215.47 60.3523 1215.13 61.0227C1214.8 61.6932 1214.34 62.2102 1213.76 62.5739C1213.19 62.9375 1212.52 63.1193 1211.78 63.1193C1211.03 63.1193 1210.37 62.9375 1209.79 62.5739C1209.21 62.2102 1208.76 61.6932 1208.43 61.0227C1208.09 60.3523 1207.93 59.5568 1207.93 58.6364C1207.93 57.7159 1208.09 56.9205 1208.43 56.25C1208.76 55.5795 1209.21 55.0625 1209.79 54.6989C1210.37 54.3352 1211.03 54.1534 1211.78 54.1534C1212.52 54.1534 1213.19 54.3352 1213.76 54.6989C1214.34 55.0625 1214.8 55.5795 1215.13 56.25C1215.47 56.9205 1215.63 57.7159 1215.63 58.6364ZM1214.61 58.6364C1214.61 57.8807 1214.48 57.2429 1214.23 56.723C1213.98 56.2031 1213.64 55.8097 1213.21 55.5426C1212.78 55.2756 1212.31 55.142 1211.78 55.142C1211.25 55.142 1210.77 55.2756 1210.34 55.5426C1209.92 55.8097 1209.58 56.2031 1209.32 56.723C1209.07 57.2429 1208.95 57.8807 1208.95 58.6364C1208.95 59.392 1209.07 60.0298 1209.32 60.5497C1209.58 61.0696 1209.92 61.4631 1210.34 61.7301C1210.77 61.9972 1211.25 62.1307 1211.78 62.1307C1212.31 62.1307 1212.78 61.9972 1213.21 61.7301C1213.64 61.4631 1213.98 61.0696 1214.23 60.5497C1214.48 60.0298 1214.61 59.392 1214.61 58.6364ZM1217.27 63V56.4545H1218.24V57.4432H1218.31C1218.43 57.1193 1218.65 56.8565 1218.96 56.6548C1219.27 56.4531 1219.62 56.3523 1220.02 56.3523C1220.09 56.3523 1220.18 56.3537 1220.29 56.3565C1220.4 56.3594 1220.49 56.3636 1220.54 56.3693V57.392C1220.51 57.3835 1220.43 57.3707 1220.31 57.3537C1220.19 57.3338 1220.06 57.3239 1219.93 57.3239C1219.61 57.3239 1219.33 57.3906 1219.08 57.5241C1218.83 57.6548 1218.64 57.8366 1218.49 58.0696C1218.35 58.2997 1218.28 58.5625 1218.28 58.858V63H1217.27ZM1224.01 63.1364C1223.46 63.1364 1222.98 62.9986 1222.56 62.723C1222.15 62.4446 1221.82 62.0526 1221.58 61.5469C1221.35 61.0384 1221.23 60.4375 1221.23 59.7443C1221.23 59.0568 1221.35 58.4602 1221.58 57.9545C1221.82 57.4489 1222.15 57.0582 1222.57 56.7827C1222.99 56.5071 1223.48 56.3693 1224.03 56.3693C1224.45 56.3693 1224.79 56.4403 1225.04 56.5824C1225.29 56.7216 1225.48 56.8807 1225.61 57.0597C1225.74 57.2358 1225.84 57.3807 1225.92 57.4943H1226V54.2727H1227.01V63H1226.04V61.9943H1225.92C1225.84 62.1136 1225.74 62.2642 1225.6 62.446C1225.47 62.625 1225.27 62.7855 1225.02 62.9276C1224.77 63.0668 1224.43 63.1364 1224.01 63.1364ZM1224.15 62.233C1224.55 62.233 1224.89 62.1278 1225.17 61.9176C1225.45 61.7045 1225.66 61.4105 1225.8 61.0355C1225.95 60.6577 1226.02 60.2216 1226.02 59.7273C1226.02 59.2386 1225.95 58.8111 1225.81 58.4446C1225.67 58.0753 1225.46 57.7884 1225.18 57.5838C1224.9 57.3764 1224.55 57.2727 1224.15 57.2727C1223.72 57.2727 1223.36 57.3821 1223.08 57.6009C1222.8 57.8168 1222.59 58.1108 1222.45 58.483C1222.31 58.8523 1222.24 59.267 1222.24 59.7273C1222.24 60.1932 1222.31 60.6165 1222.45 60.9972C1222.59 61.375 1222.81 61.6761 1223.09 61.9006C1223.37 62.1222 1223.73 62.233 1224.15 62.233ZM1231.74 63.1364C1231.1 63.1364 1230.56 62.9972 1230.1 62.7188C1229.65 62.4375 1229.3 62.0455 1229.05 61.5426C1228.81 61.0369 1228.68 60.4489 1228.68 59.7784C1228.68 59.108 1228.81 58.517 1229.05 58.0057C1229.3 57.4915 1229.64 57.0909 1230.08 56.804C1230.52 56.5142 1231.04 56.3693 1231.63 56.3693C1231.97 56.3693 1232.31 56.4261 1232.64 56.5398C1232.98 56.6534 1233.28 56.8381 1233.55 57.0938C1233.82 57.3466 1234.04 57.6818 1234.2 58.0994C1234.36 58.517 1234.45 59.0312 1234.45 59.642V60.0682H1229.4V59.1989H1233.42C1233.42 58.8295 1233.35 58.5 1233.2 58.2102C1233.06 57.9205 1232.85 57.6918 1232.58 57.5241C1232.31 57.3565 1232 57.2727 1231.63 57.2727C1231.23 57.2727 1230.89 57.3722 1230.59 57.571C1230.3 57.767 1230.08 58.0227 1229.92 58.3381C1229.77 58.6534 1229.69 58.9915 1229.69 59.3523V59.9318C1229.69 60.4261 1229.77 60.8452 1229.95 61.1889C1230.12 61.5298 1230.36 61.7898 1230.67 61.9688C1230.97 62.1449 1231.33 62.233 1231.74 62.233C1232 62.233 1232.24 62.196 1232.45 62.1222C1232.67 62.0455 1232.85 61.9318 1233.01 61.7812C1233.17 61.6278 1233.29 61.4375 1233.37 61.2102L1234.34 61.483C1234.24 61.8125 1234.07 62.1023 1233.83 62.3523C1233.59 62.5994 1233.29 62.7926 1232.93 62.9318C1232.58 63.0682 1232.18 63.1364 1231.74 63.1364ZM1235.98 63V56.4545H1236.95V57.4432H1237.01C1237.13 57.1193 1237.35 56.8565 1237.66 56.6548C1237.98 56.4531 1238.33 56.3523 1238.72 56.3523C1238.79 56.3523 1238.89 56.3537 1239 56.3565C1239.11 56.3594 1239.19 56.3636 1239.25 56.3693V57.392C1239.21 57.3835 1239.14 57.3707 1239.01 57.3537C1238.89 57.3338 1238.77 57.3239 1238.63 57.3239C1238.32 57.3239 1238.03 57.3906 1237.78 57.5241C1237.53 57.6548 1237.34 57.8366 1237.19 58.0696C1237.05 58.2997 1236.98 58.5625 1236.98 58.858V63H1235.98ZM1245.08 57.9205L1244.17 58.1761C1244.12 58.0256 1244.03 57.8793 1243.92 57.7372C1243.81 57.5923 1243.67 57.473 1243.48 57.3793C1243.29 57.2855 1243.05 57.2386 1242.76 57.2386C1242.36 57.2386 1242.02 57.331 1241.76 57.5156C1241.49 57.6974 1241.36 57.929 1241.36 58.2102C1241.36 58.4602 1241.45 58.6577 1241.63 58.8026C1241.81 58.9474 1242.1 59.0682 1242.49 59.1648L1243.46 59.4034C1244.04 59.5455 1244.48 59.7628 1244.77 60.0554C1245.05 60.3452 1245.2 60.7187 1245.2 61.1761C1245.2 61.5511 1245.09 61.8864 1244.87 62.1818C1244.66 62.4773 1244.36 62.7102 1243.98 62.8807C1243.59 63.0511 1243.15 63.1364 1242.64 63.1364C1241.97 63.1364 1241.42 62.9915 1240.98 62.7017C1240.54 62.4119 1240.27 61.9886 1240.15 61.4318L1241.1 61.1932C1241.2 61.5455 1241.37 61.8097 1241.62 61.9858C1241.88 62.1619 1242.21 62.25 1242.62 62.25C1243.09 62.25 1243.46 62.1506 1243.74 61.9517C1244.02 61.75 1244.16 61.5085 1244.16 61.2273C1244.16 61 1244.08 60.8097 1243.92 60.6562C1243.76 60.5 1243.51 60.3835 1243.18 60.3068L1242.09 60.0511C1241.49 59.9091 1241.05 59.6889 1240.77 59.3906C1240.49 59.0895 1240.35 58.7131 1240.35 58.2614C1240.35 57.892 1240.46 57.5653 1240.67 57.2812C1240.88 56.9972 1241.16 56.7741 1241.52 56.6122C1241.89 56.4503 1242.3 56.3693 1242.76 56.3693C1243.41 56.3693 1243.91 56.5114 1244.28 56.7955C1244.66 57.0795 1244.92 57.4545 1245.08 57.9205Z" fill="#8B96A5"/>
<path d="M1141.43 54.2727H1142.69L1145.66 61.517H1145.76L1148.72 54.2727H1149.98V63H1149V56.3693H1148.91L1146.18 63H1145.23L1142.5 56.3693H1142.42V63H1141.43V54.2727ZM1154.71 63.1364C1154.08 63.1364 1153.54 62.9972 1153.08 62.7188C1152.62 62.4375 1152.27 62.0455 1152.03 61.5426C1151.78 61.0369 1151.66 60.4489 1151.66 59.7784C1151.66 59.108 1151.78 58.517 1152.03 58.0057C1152.27 57.4915 1152.62 57.0909 1153.06 56.804C1153.5 56.5142 1154.02 56.3693 1154.61 56.3693C1154.95 56.3693 1155.29 56.4261 1155.62 56.5398C1155.95 56.6534 1156.25 56.8381 1156.53 57.0938C1156.8 57.3466 1157.02 57.6818 1157.18 58.0994C1157.34 58.517 1157.42 59.0312 1157.42 59.642V60.0682H1152.38V59.1989H1156.4C1156.4 58.8295 1156.33 58.5 1156.18 58.2102C1156.03 57.9205 1155.83 57.6918 1155.56 57.5241C1155.29 57.3565 1154.97 57.2727 1154.61 57.2727C1154.21 57.2727 1153.86 57.3722 1153.57 57.571C1153.28 57.767 1153.06 58.0227 1152.9 58.3381C1152.74 58.6534 1152.67 58.9915 1152.67 59.3523V59.9318C1152.67 60.4261 1152.75 60.8452 1152.92 61.1889C1153.1 61.5298 1153.34 61.7898 1153.64 61.9688C1153.95 62.1449 1154.31 62.233 1154.71 62.233C1154.98 62.233 1155.21 62.196 1155.43 62.1222C1155.64 62.0455 1155.83 61.9318 1155.99 61.7812C1156.14 61.6278 1156.26 61.4375 1156.35 61.2102L1157.32 61.483C1157.22 61.8125 1157.05 62.1023 1156.8 62.3523C1156.56 62.5994 1156.26 62.7926 1155.91 62.9318C1155.55 63.0682 1155.15 63.1364 1154.71 63.1364ZM1163.59 57.9205L1162.68 58.1761C1162.63 58.0256 1162.54 57.8793 1162.43 57.7372C1162.33 57.5923 1162.18 57.473 1161.99 57.3793C1161.8 57.2855 1161.56 57.2386 1161.27 57.2386C1160.87 57.2386 1160.54 57.331 1160.27 57.5156C1160 57.6974 1159.87 57.929 1159.87 58.2102C1159.87 58.4602 1159.96 58.6577 1160.14 58.8026C1160.33 58.9474 1160.61 59.0682 1161 59.1648L1161.97 59.4034C1162.55 59.5455 1162.99 59.7628 1163.28 60.0554C1163.56 60.3452 1163.71 60.7187 1163.71 61.1761C1163.71 61.5511 1163.6 61.8864 1163.38 62.1818C1163.17 62.4773 1162.87 62.7102 1162.49 62.8807C1162.11 63.0511 1161.66 63.1364 1161.15 63.1364C1160.48 63.1364 1159.93 62.9915 1159.49 62.7017C1159.06 62.4119 1158.78 61.9886 1158.66 61.4318L1159.62 61.1932C1159.71 61.5455 1159.88 61.8097 1160.13 61.9858C1160.39 62.1619 1160.72 62.25 1161.13 62.25C1161.6 62.25 1161.97 62.1506 1162.25 61.9517C1162.53 61.75 1162.67 61.5085 1162.67 61.2273C1162.67 61 1162.59 60.8097 1162.43 60.6562C1162.27 60.5 1162.03 60.3835 1161.7 60.3068L1160.61 60.0511C1160.01 59.9091 1159.57 59.6889 1159.28 59.3906C1159.01 59.0895 1158.87 58.7131 1158.87 58.2614C1158.87 57.892 1158.97 57.5653 1159.18 57.2812C1159.39 56.9972 1159.67 56.7741 1160.03 56.6122C1160.4 56.4503 1160.81 56.3693 1161.27 56.3693C1161.92 56.3693 1162.43 56.5114 1162.8 56.7955C1163.17 57.0795 1163.43 57.4545 1163.59 57.9205ZM1169.86 57.9205L1168.95 58.1761C1168.9 58.0256 1168.81 57.8793 1168.7 57.7372C1168.59 57.5923 1168.45 57.473 1168.26 57.3793C1168.07 57.2855 1167.83 57.2386 1167.54 57.2386C1167.14 57.2386 1166.81 57.331 1166.54 57.5156C1166.27 57.6974 1166.14 57.929 1166.14 58.2102C1166.14 58.4602 1166.23 58.6577 1166.41 58.8026C1166.6 58.9474 1166.88 59.0682 1167.27 59.1648L1168.24 59.4034C1168.82 59.5455 1169.26 59.7628 1169.55 60.0554C1169.83 60.3452 1169.98 60.7187 1169.98 61.1761C1169.98 61.5511 1169.87 61.8864 1169.65 62.1818C1169.44 62.4773 1169.14 62.7102 1168.76 62.8807C1168.37 63.0511 1167.93 63.1364 1167.42 63.1364C1166.75 63.1364 1166.2 62.9915 1165.76 62.7017C1165.32 62.4119 1165.05 61.9886 1164.93 61.4318L1165.89 61.1932C1165.98 61.5455 1166.15 61.8097 1166.4 61.9858C1166.66 62.1619 1166.99 62.25 1167.4 62.25C1167.87 62.25 1168.24 62.1506 1168.52 61.9517C1168.8 61.75 1168.94 61.5085 1168.94 61.2273C1168.94 61 1168.86 60.8097 1168.7 60.6562C1168.54 60.5 1168.3 60.3835 1167.97 60.3068L1166.87 60.0511C1166.28 59.9091 1165.83 59.6889 1165.55 59.3906C1165.28 59.0895 1165.14 58.7131 1165.14 58.2614C1165.14 57.892 1165.24 57.5653 1165.45 57.2812C1165.66 56.9972 1165.94 56.7741 1166.3 56.6122C1166.67 56.4503 1167.08 56.3693 1167.54 56.3693C1168.19 56.3693 1168.7 56.5114 1169.06 56.7955C1169.44 57.0795 1169.7 57.4545 1169.86 57.9205ZM1173.42 63.1534C1173 63.1534 1172.63 63.0753 1172.29 62.919C1171.95 62.7599 1171.68 62.5312 1171.48 62.233C1171.28 61.9318 1171.18 61.5682 1171.18 61.142C1171.18 60.767 1171.26 60.4631 1171.41 60.2301C1171.55 59.9943 1171.75 59.8097 1172 59.6761C1172.25 59.5426 1172.52 59.4432 1172.82 59.3778C1173.12 59.3097 1173.42 59.2557 1173.72 59.2159C1174.12 59.1648 1174.44 59.1264 1174.69 59.1009C1174.94 59.0724 1175.12 59.0256 1175.24 58.9602C1175.35 58.8949 1175.41 58.7812 1175.41 58.6193V58.5852C1175.41 58.1648 1175.3 57.8381 1175.07 57.6051C1174.84 57.3722 1174.49 57.2557 1174.03 57.2557C1173.55 57.2557 1173.17 57.3608 1172.9 57.571C1172.63 57.7812 1172.44 58.0057 1172.33 58.2443L1171.37 57.9034C1171.54 57.5057 1171.77 57.196 1172.05 56.9744C1172.34 56.75 1172.65 56.5937 1172.99 56.5057C1173.33 56.4148 1173.67 56.3693 1174 56.3693C1174.21 56.3693 1174.45 56.3949 1174.72 56.446C1175 56.4943 1175.26 56.5952 1175.52 56.7486C1175.78 56.902 1175.99 57.1335 1176.16 57.4432C1176.33 57.7528 1176.42 58.1676 1176.42 58.6875V63H1175.41V62.1136H1175.36C1175.29 62.2557 1175.18 62.4077 1175.02 62.5696C1174.86 62.7315 1174.65 62.8693 1174.38 62.983C1174.12 63.0966 1173.8 63.1534 1173.42 63.1534ZM1173.57 62.25C1173.97 62.25 1174.3 62.1719 1174.58 62.0156C1174.85 61.8594 1175.06 61.6577 1175.2 61.4105C1175.34 61.1634 1175.41 60.9034 1175.41 60.6307V59.7102C1175.37 59.7614 1175.27 59.8082 1175.13 59.8509C1174.99 59.8906 1174.82 59.9261 1174.64 59.9574C1174.45 59.9858 1174.27 60.0114 1174.09 60.0341C1173.92 60.054 1173.78 60.071 1173.67 60.0852C1173.41 60.1193 1173.17 60.1747 1172.94 60.2514C1172.72 60.3253 1172.53 60.4375 1172.39 60.5881C1172.26 60.7358 1172.19 60.9375 1172.19 61.1932C1172.19 61.5426 1172.32 61.8068 1172.58 61.9858C1172.84 62.1619 1173.17 62.25 1173.57 62.25ZM1180.89 65.5909C1180.41 65.5909 1179.99 65.5284 1179.64 65.4034C1179.29 65.2812 1179 65.1193 1178.77 64.9176C1178.54 64.7188 1178.35 64.5057 1178.22 64.2784L1179.02 63.7159C1179.11 63.8352 1179.23 63.9716 1179.36 64.125C1179.5 64.2812 1179.69 64.4162 1179.94 64.5298C1180.18 64.6463 1180.5 64.7045 1180.89 64.7045C1181.42 64.7045 1181.86 64.5767 1182.2 64.321C1182.55 64.0653 1182.72 63.6648 1182.72 63.1193V61.7898H1182.63C1182.56 61.9091 1182.45 62.0568 1182.32 62.233C1182.18 62.4062 1181.99 62.5611 1181.74 62.6974C1181.49 62.831 1181.15 62.8977 1180.72 62.8977C1180.2 62.8977 1179.72 62.7727 1179.3 62.5227C1178.88 62.2727 1178.55 61.9091 1178.31 61.4318C1178.07 60.9545 1177.95 60.375 1177.95 59.6932C1177.95 59.0227 1178.06 58.4389 1178.3 57.9418C1178.54 57.4418 1178.86 57.0554 1179.28 56.7827C1179.7 56.5071 1180.19 56.3693 1180.74 56.3693C1181.17 56.3693 1181.51 56.4403 1181.76 56.5824C1182.01 56.7216 1182.2 56.8807 1182.33 57.0597C1182.47 57.2358 1182.58 57.3807 1182.65 57.4943H1182.75V56.4545H1183.72V63.1875C1183.72 63.75 1183.6 64.2074 1183.34 64.5597C1183.09 64.9148 1182.75 65.1747 1182.32 65.3395C1181.89 65.5071 1181.42 65.5909 1180.89 65.5909ZM1180.86 61.9943C1181.26 61.9943 1181.6 61.902 1181.88 61.7173C1182.16 61.5327 1182.37 61.267 1182.52 60.9205C1182.66 60.5739 1182.74 60.1591 1182.74 59.6761C1182.74 59.2045 1182.66 58.7884 1182.52 58.4276C1182.38 58.0668 1182.17 57.7841 1181.89 57.5795C1181.61 57.375 1181.27 57.2727 1180.86 57.2727C1180.43 57.2727 1180.08 57.3807 1179.8 57.5966C1179.51 57.8125 1179.3 58.1023 1179.16 58.4659C1179.02 58.8295 1178.95 59.233 1178.95 59.6761C1178.95 60.1307 1179.02 60.5327 1179.16 60.8821C1179.31 61.2287 1179.52 61.5014 1179.8 61.7003C1180.09 61.8963 1180.44 61.9943 1180.86 61.9943ZM1188.31 63.1364C1187.68 63.1364 1187.13 62.9972 1186.68 62.7188C1186.22 62.4375 1185.87 62.0455 1185.62 61.5426C1185.38 61.0369 1185.26 60.4489 1185.26 59.7784C1185.26 59.108 1185.38 58.517 1185.62 58.0057C1185.87 57.4915 1186.22 57.0909 1186.66 56.804C1187.1 56.5142 1187.62 56.3693 1188.21 56.3693C1188.55 56.3693 1188.88 56.4261 1189.22 56.5398C1189.55 56.6534 1189.85 56.8381 1190.12 57.0938C1190.4 57.3466 1190.61 57.6818 1190.78 58.0994C1190.94 58.517 1191.02 59.0312 1191.02 59.642V60.0682H1185.97V59.1989H1190C1190 58.8295 1189.92 58.5 1189.78 58.2102C1189.63 57.9205 1189.42 57.6918 1189.15 57.5241C1188.89 57.3565 1188.57 57.2727 1188.21 57.2727C1187.81 57.2727 1187.46 57.3722 1187.17 57.571C1186.88 57.767 1186.65 58.0227 1186.5 58.3381C1186.34 58.6534 1186.26 58.9915 1186.26 59.3523V59.9318C1186.26 60.4261 1186.35 60.8452 1186.52 61.1889C1186.69 61.5298 1186.93 61.7898 1187.24 61.9688C1187.55 62.1449 1187.9 62.233 1188.31 62.233C1188.57 62.233 1188.81 62.196 1189.03 62.1222C1189.24 62.0455 1189.43 61.9318 1189.58 61.7812C1189.74 61.6278 1189.86 61.4375 1189.95 61.2102L1190.92 61.483C1190.81 61.8125 1190.64 62.1023 1190.4 62.3523C1190.16 62.5994 1189.86 62.7926 1189.51 62.9318C1189.15 63.0682 1188.75 63.1364 1188.31 63.1364Z" fill="#8B96A5"/>
<path fill-rule="evenodd" clip-rule="evenodd" d="M1174 26H1158C1156.9 26 1156.01 26.9 1156.01 28L1156 46L1160 42H1174C1175.1 42 1176 41.1 1176 40V28C1176 26.9 1175.1 26 1174 26ZM1161 33H1171C1171.55 33 1172 33.45 1172 34C1172 34.55 1171.55 35 1171 35H1161C1160.45 35 1160 34.55 1160 34C1160 33.45 1160.45 33 1161 33ZM1167 38H1161C1160.45 38 1160 37.55 1160 37C1160 36.45 1160.45 36 1161 36H1167C1167.55 36 1168 36.45 1168 37C1168 37.55 1167.55 38 1167 38ZM1171 32H1161C1160.45 32 1160 31.55 1160 31C1160 30.45 1160.45 30 1161 30H1171C1171.55 30 1172 30.45 1172 31C1172 31.55 1171.55 32 1171 32Z" fill="#8B96A5"/>
<path d="M1081.53 63V54.2727H1084.48C1085.17 54.2727 1085.73 54.3963 1086.16 54.6435C1086.6 54.8878 1086.92 55.2188 1087.13 55.6364C1087.34 56.054 1087.45 56.5199 1087.45 57.0341C1087.45 57.5483 1087.34 58.0156 1087.13 58.4361C1086.93 58.8565 1086.6 59.1918 1086.17 59.4418C1085.74 59.6889 1085.18 59.8125 1084.5 59.8125H1082.39V58.875H1084.47C1084.93 58.875 1085.31 58.794 1085.59 58.6321C1085.88 58.4702 1086.08 58.2514 1086.21 57.9759C1086.34 57.6974 1086.41 57.3835 1086.41 57.0341C1086.41 56.6847 1086.34 56.3722 1086.21 56.0966C1086.08 55.821 1085.88 55.6051 1085.59 55.4489C1085.3 55.2898 1084.92 55.2102 1084.45 55.2102H1082.59V63H1081.53ZM1089.01 63V56.4545H1089.99V57.4432H1090.05C1090.17 57.1193 1090.39 56.8565 1090.7 56.6548C1091.01 56.4531 1091.37 56.3523 1091.76 56.3523C1091.83 56.3523 1091.92 56.3537 1092.04 56.3565C1092.15 56.3594 1092.23 56.3636 1092.29 56.3693V57.392C1092.25 57.3835 1092.17 57.3707 1092.05 57.3537C1091.93 57.3338 1091.81 57.3239 1091.67 57.3239C1091.36 57.3239 1091.07 57.3906 1090.82 57.5241C1090.57 57.6548 1090.38 57.8366 1090.23 58.0696C1090.09 58.2997 1090.02 58.5625 1090.02 58.858V63H1089.01ZM1095.94 63.1364C1095.35 63.1364 1094.83 62.9957 1094.38 62.7145C1093.94 62.4332 1093.59 62.0398 1093.34 61.5341C1093.1 61.0284 1092.97 60.4375 1092.97 59.7614C1092.97 59.0795 1093.1 58.4844 1093.34 57.9759C1093.59 57.4673 1093.94 57.0724 1094.38 56.7912C1094.83 56.5099 1095.35 56.3693 1095.94 56.3693C1096.53 56.3693 1097.05 56.5099 1097.49 56.7912C1097.94 57.0724 1098.28 57.4673 1098.53 57.9759C1098.78 58.4844 1098.9 59.0795 1098.9 59.7614C1098.9 60.4375 1098.78 61.0284 1098.53 61.5341C1098.28 62.0398 1097.94 62.4332 1097.49 62.7145C1097.05 62.9957 1096.53 63.1364 1095.94 63.1364ZM1095.94 62.233C1096.39 62.233 1096.76 62.1179 1097.05 61.8878C1097.34 61.6577 1097.55 61.3551 1097.69 60.9801C1097.83 60.6051 1097.9 60.1989 1097.9 59.7614C1097.9 59.3239 1097.83 58.9162 1097.69 58.5384C1097.55 58.1605 1097.34 57.8551 1097.05 57.6222C1096.76 57.3892 1096.39 57.2727 1095.94 57.2727C1095.49 57.2727 1095.12 57.3892 1094.83 57.6222C1094.54 57.8551 1094.33 58.1605 1094.19 58.5384C1094.05 58.9162 1093.98 59.3239 1093.98 59.7614C1093.98 60.1989 1094.05 60.6051 1094.19 60.9801C1094.33 61.3551 1094.54 61.6577 1094.83 61.8878C1095.12 62.1179 1095.49 62.233 1095.94 62.233ZM1103.35 56.4545V57.3068H1099.83V56.4545H1103.35ZM1100.88 63V55.5511C1100.88 55.1761 1100.97 54.8636 1101.15 54.6136C1101.32 54.3636 1101.55 54.1761 1101.83 54.0511C1102.11 53.9261 1102.41 53.8636 1102.72 53.8636C1102.97 53.8636 1103.17 53.8835 1103.33 53.9233C1103.49 53.9631 1103.6 54 1103.68 54.0341L1103.39 54.9034C1103.34 54.8864 1103.27 54.8651 1103.18 54.8395C1103.09 54.8139 1102.97 54.8011 1102.83 54.8011C1102.49 54.8011 1102.25 54.8849 1102.11 55.0526C1101.96 55.2202 1101.89 55.4659 1101.89 55.7898V63H1100.88ZM1104.76 63V56.4545H1105.77V63H1104.76ZM1105.28 55.3636C1105.08 55.3636 1104.91 55.2969 1104.77 55.1634C1104.63 55.0298 1104.56 54.8693 1104.56 54.6818C1104.56 54.4943 1104.63 54.3338 1104.77 54.2003C1104.91 54.0668 1105.08 54 1105.28 54C1105.47 54 1105.64 54.0668 1105.78 54.2003C1105.92 54.3338 1105.99 54.4943 1105.99 54.6818C1105.99 54.8693 1105.92 55.0298 1105.78 55.1634C1105.64 55.2969 1105.47 55.3636 1105.28 55.3636ZM1108.62 54.2727V63H1107.61V54.2727H1108.62ZM1113.2 63.1364C1112.57 63.1364 1112.03 62.9972 1111.57 62.7188C1111.12 62.4375 1110.77 62.0455 1110.52 61.5426C1110.27 61.0369 1110.15 60.4489 1110.15 59.7784C1110.15 59.108 1110.27 58.517 1110.52 58.0057C1110.77 57.4915 1111.11 57.0909 1111.55 56.804C1111.99 56.5142 1112.51 56.3693 1113.1 56.3693C1113.44 56.3693 1113.78 56.4261 1114.11 56.5398C1114.44 56.6534 1114.75 56.8381 1115.02 57.0938C1115.29 57.3466 1115.51 57.6818 1115.67 58.0994C1115.83 58.517 1115.91 59.0312 1115.91 59.642V60.0682H1110.87V59.1989H1114.89C1114.89 58.8295 1114.82 58.5 1114.67 58.2102C1114.52 57.9205 1114.32 57.6918 1114.05 57.5241C1113.78 57.3565 1113.47 57.2727 1113.1 57.2727C1112.7 57.2727 1112.35 57.3722 1112.06 57.571C1111.77 57.767 1111.55 58.0227 1111.39 58.3381C1111.24 58.6534 1111.16 58.9915 1111.16 59.3523V59.9318C1111.16 60.4261 1111.24 60.8452 1111.41 61.1889C1111.59 61.5298 1111.83 61.7898 1112.13 61.9688C1112.44 62.1449 1112.8 62.233 1113.2 62.233C1113.47 62.233 1113.71 62.196 1113.92 62.1222C1114.14 62.0455 1114.32 61.9318 1114.48 61.7812C1114.63 61.6278 1114.75 61.4375 1114.84 61.2102L1115.81 61.483C1115.71 61.8125 1115.54 62.1023 1115.3 62.3523C1115.05 62.5994 1114.76 62.7926 1114.4 62.9318C1114.05 63.0682 1113.65 63.1364 1113.2 63.1364Z" fill="#8B96A5"/>
<path fill-rule="evenodd" clip-rule="evenodd" d="M1098 35C1100.76 35 1103 32.7625 1103 30C1103 27.2375 1100.76 25 1098 25C1095.24 25 1093 27.2375 1093 30C1093 32.7625 1095.24 35 1098 35ZM1098 36.5C1094.66 36.5 1088 38.175 1088 41.5V42.75C1088 43.4375 1088.56 44 1089.25 44H1106.75C1107.44 44 1108 43.4375 1108 42.75V41.5C1108 38.175 1101.34 36.5 1098 36.5Z" fill="#8B96A5"/>
<rect x="325.5" y="21.5" width="666" height="41" rx="6.5" fill="#D9D9D9" stroke="#0D6EFD"/>
<path d="M746.5 22.5H890.5V61.5H746.5V22.5Z" fill="white" stroke="#0D6EFD"/>
<path d="M757.886 48H756.409L760.682 36.3636H762.136L766.409 48H764.932L761.455 38.2045H761.364L757.886 48ZM758.432 43.4545H764.386V44.7045H758.432V43.4545ZM769.381 36.3636V48H768.04V36.3636H769.381ZM773.178 36.3636V48H771.837V36.3636H773.178ZM783.679 48.1818C782.861 48.1818 782.156 47.9886 781.565 47.6023C780.974 47.2159 780.52 46.6837 780.202 46.0057C779.884 45.3277 779.724 44.553 779.724 43.6818C779.724 42.7955 779.887 42.0133 780.213 41.3352C780.543 40.6534 781.001 40.1212 781.588 39.7386C782.179 39.3523 782.868 39.1591 783.656 39.1591C784.27 39.1591 784.823 39.2727 785.315 39.5C785.808 39.7273 786.211 40.0455 786.526 40.4545C786.84 40.8636 787.035 41.3409 787.111 41.8864H785.77C785.668 41.4886 785.44 41.1364 785.088 40.8295C784.74 40.5189 784.27 40.3636 783.679 40.3636C783.156 40.3636 782.698 40.5 782.304 40.7727C781.914 41.0417 781.609 41.4223 781.389 41.9148C781.173 42.4034 781.065 42.9773 781.065 43.6364C781.065 44.3106 781.171 44.8977 781.384 45.3977C781.599 45.8977 781.902 46.286 782.293 46.5625C782.687 46.839 783.149 46.9773 783.679 46.9773C784.027 46.9773 784.344 46.9167 784.628 46.7955C784.912 46.6742 785.152 46.5 785.349 46.2727C785.546 46.0455 785.687 45.7727 785.77 45.4545H787.111C787.035 45.9697 786.848 46.4337 786.548 46.8466C786.253 47.2557 785.861 47.5814 785.372 47.8239C784.887 48.0625 784.323 48.1818 783.679 48.1818ZM791.639 48.2045C791.086 48.2045 790.584 48.1004 790.134 47.892C789.683 47.6799 789.325 47.375 789.06 46.9773C788.795 46.5758 788.662 46.0909 788.662 45.5227C788.662 45.0227 788.76 44.6174 788.957 44.3068C789.154 43.9924 789.418 43.7462 789.747 43.5682C790.077 43.3902 790.44 43.2576 790.838 43.1705C791.24 43.0795 791.643 43.0076 792.048 42.9545C792.579 42.8864 793.009 42.8352 793.338 42.8011C793.671 42.7633 793.914 42.7008 794.065 42.6136C794.221 42.5265 794.298 42.375 794.298 42.1591V42.1136C794.298 41.553 794.145 41.1174 793.838 40.8068C793.535 40.4962 793.075 40.3409 792.457 40.3409C791.817 40.3409 791.315 40.4811 790.952 40.7614C790.588 41.0417 790.332 41.3409 790.185 41.6591L788.912 41.2045C789.139 40.6742 789.442 40.2614 789.821 39.9659C790.204 39.6667 790.62 39.4583 791.071 39.3409C791.526 39.2197 791.973 39.1591 792.412 39.1591C792.692 39.1591 793.014 39.1932 793.378 39.2614C793.745 39.3258 794.099 39.4602 794.44 39.6648C794.785 39.8693 795.071 40.178 795.298 40.5909C795.526 41.0038 795.639 41.5568 795.639 42.25V48H794.298V46.8182H794.23C794.139 47.0076 793.988 47.2102 793.776 47.4261C793.563 47.642 793.281 47.8258 792.929 47.9773C792.577 48.1288 792.147 48.2045 791.639 48.2045ZM791.844 47C792.374 47 792.821 46.8958 793.185 46.6875C793.552 46.4792 793.829 46.2102 794.014 45.8807C794.204 45.5511 794.298 45.2045 794.298 44.8409V43.6136C794.241 43.6818 794.116 43.7443 793.923 43.8011C793.734 43.8542 793.514 43.9015 793.264 43.9432C793.018 43.9811 792.777 44.0152 792.543 44.0455C792.312 44.072 792.124 44.0947 791.98 44.1136C791.632 44.1591 791.306 44.233 791.003 44.3352C790.704 44.4337 790.461 44.5833 790.276 44.7841C790.094 44.9811 790.003 45.25 790.003 45.5909C790.003 46.0568 790.175 46.4091 790.52 46.6477C790.868 46.8826 791.31 47 791.844 47ZM801.882 39.2727V40.4091H797.359V39.2727H801.882ZM798.678 37.1818H800.018V45.5C800.018 45.8788 800.073 46.1629 800.183 46.3523C800.297 46.5379 800.441 46.6629 800.615 46.7273C800.793 46.7879 800.981 46.8182 801.178 46.8182C801.325 46.8182 801.446 46.8106 801.541 46.7955C801.636 46.7765 801.712 46.7614 801.768 46.75L802.041 47.9545C801.95 47.9886 801.823 48.0227 801.661 48.0568C801.498 48.0947 801.291 48.1136 801.041 48.1136C800.662 48.1136 800.291 48.0322 799.928 47.8693C799.568 47.7064 799.268 47.4583 799.03 47.125C798.795 46.7917 798.678 46.3712 798.678 45.8636V37.1818ZM807.464 48.1818C806.624 48.1818 805.898 47.9962 805.288 47.625C804.682 47.25 804.214 46.7273 803.885 46.0568C803.559 45.3826 803.396 44.5985 803.396 43.7045C803.396 42.8106 803.559 42.0227 803.885 41.3409C804.214 40.6553 804.673 40.1212 805.26 39.7386C805.851 39.3523 806.54 39.1591 807.328 39.1591C807.783 39.1591 808.232 39.2348 808.675 39.3864C809.118 39.5379 809.521 39.7841 809.885 40.125C810.249 40.4621 810.538 40.9091 810.754 41.4659C810.97 42.0227 811.078 42.7083 811.078 43.5227V44.0909H804.351V42.9318H809.714C809.714 42.4394 809.616 42 809.419 41.6136C809.226 41.2273 808.949 40.9223 808.589 40.6989C808.233 40.4754 807.813 40.3636 807.328 40.3636C806.794 40.3636 806.332 40.4962 805.942 40.7614C805.555 41.0227 805.258 41.3636 805.05 41.7841C804.841 42.2045 804.737 42.6553 804.737 43.1364V43.9091C804.737 44.5682 804.851 45.1269 805.078 45.5852C805.309 46.0398 805.629 46.3864 806.038 46.625C806.447 46.8598 806.923 46.9773 807.464 46.9773C807.817 46.9773 808.135 46.928 808.419 46.8295C808.707 46.7273 808.955 46.5758 809.163 46.375C809.372 46.1705 809.533 45.9167 809.646 45.6136L810.942 45.9773C810.805 46.4167 810.576 46.803 810.254 47.1364C809.932 47.4659 809.535 47.7235 809.061 47.9091C808.588 48.0909 808.055 48.1818 807.464 48.1818ZM816.641 51.4545C815.993 51.4545 815.436 51.3712 814.97 51.2045C814.504 51.0417 814.116 50.8258 813.805 50.5568C813.499 50.2917 813.254 50.0076 813.072 49.7045L814.141 48.9545C814.262 49.1136 814.415 49.2955 814.601 49.5C814.786 49.7083 815.04 49.8883 815.362 50.0398C815.688 50.1951 816.114 50.2727 816.641 50.2727C817.345 50.2727 817.927 50.1023 818.385 49.7614C818.843 49.4205 819.072 48.8864 819.072 48.1591V46.3864H818.959C818.86 46.5455 818.72 46.7424 818.538 46.9773C818.36 47.2083 818.103 47.4148 817.766 47.5966C817.432 47.7746 816.982 47.8636 816.413 47.8636C815.709 47.8636 815.076 47.697 814.516 47.3636C813.959 47.0303 813.518 46.5455 813.192 45.9091C812.87 45.2727 812.709 44.5 812.709 43.5909C812.709 42.697 812.866 41.9186 813.18 41.2557C813.495 40.589 813.932 40.0739 814.493 39.7102C815.054 39.3428 815.701 39.1591 816.436 39.1591C817.004 39.1591 817.455 39.2538 817.788 39.4432C818.125 39.6288 818.383 39.8409 818.561 40.0795C818.743 40.3144 818.883 40.5076 818.982 40.6591H819.118V39.2727H820.413V48.25C820.413 49 820.243 49.6098 819.902 50.0795C819.565 50.553 819.11 50.8996 818.538 51.1193C817.97 51.3428 817.338 51.4545 816.641 51.4545ZM816.595 46.6591C817.133 46.6591 817.588 46.536 817.959 46.2898C818.33 46.0436 818.612 45.6894 818.805 45.2273C818.999 44.7652 819.095 44.2121 819.095 43.5682C819.095 42.9394 819 42.3845 818.811 41.9034C818.622 41.4223 818.341 41.0455 817.97 40.7727C817.599 40.5 817.141 40.3636 816.595 40.3636C816.027 40.3636 815.554 40.5076 815.175 40.7955C814.8 41.0833 814.518 41.4697 814.328 41.9545C814.143 42.4394 814.05 42.9773 814.05 43.5682C814.05 44.1742 814.144 44.7102 814.334 45.1761C814.527 45.6383 814.811 46.0019 815.186 46.267C815.565 46.5284 816.035 46.6591 816.595 46.6591ZM826.413 48.1818C825.625 48.1818 824.934 47.9943 824.339 47.6193C823.749 47.2443 823.286 46.7197 822.953 46.0455C822.624 45.3712 822.459 44.5833 822.459 43.6818C822.459 42.7727 822.624 41.9792 822.953 41.3011C823.286 40.6231 823.749 40.0966 824.339 39.7216C824.934 39.3466 825.625 39.1591 826.413 39.1591C827.201 39.1591 827.891 39.3466 828.482 39.7216C829.076 40.0966 829.538 40.6231 829.868 41.3011C830.201 41.9792 830.368 42.7727 830.368 43.6818C830.368 44.5833 830.201 45.3712 829.868 46.0455C829.538 46.7197 829.076 47.2443 828.482 47.6193C827.891 47.9943 827.201 48.1818 826.413 48.1818ZM826.413 46.9773C827.012 46.9773 827.504 46.8239 827.891 46.517C828.277 46.2102 828.563 45.8068 828.749 45.3068C828.934 44.8068 829.027 44.2652 829.027 43.6818C829.027 43.0985 828.934 42.5549 828.749 42.0511C828.563 41.5473 828.277 41.1402 827.891 40.8295C827.504 40.5189 827.012 40.3636 826.413 40.3636C825.815 40.3636 825.322 40.5189 824.936 40.8295C824.55 41.1402 824.264 41.5473 824.078 42.0511C823.893 42.5549 823.8 43.0985 823.8 43.6818C823.8 44.2652 823.893 44.8068 824.078 45.3068C824.264 45.8068 824.55 46.2102 824.936 46.517C825.322 46.8239 825.815 46.9773 826.413 46.9773ZM832.415 48V39.2727H833.71V40.5909H833.801C833.96 40.1591 834.248 39.8087 834.665 39.5398C835.081 39.2708 835.551 39.1364 836.074 39.1364C836.172 39.1364 836.295 39.1383 836.443 39.142C836.591 39.1458 836.703 39.1515 836.778 39.1591V40.5227C836.733 40.5114 836.629 40.4943 836.466 40.4716C836.307 40.4451 836.138 40.4318 835.96 40.4318C835.536 40.4318 835.157 40.5208 834.824 40.6989C834.494 40.8731 834.233 41.1155 834.04 41.4261C833.85 41.733 833.756 42.0833 833.756 42.4773V48H832.415ZM839.497 51.2727C839.27 51.2727 839.067 51.2538 838.889 51.2159C838.711 51.1818 838.588 51.1477 838.52 51.1136L838.861 49.9318C839.187 50.0152 839.474 50.0455 839.724 50.0227C839.974 50 840.196 49.8883 840.389 49.6875C840.586 49.4905 840.766 49.1705 840.929 48.7273L841.179 48.0455L837.952 39.2727H839.406L841.815 46.2273H841.906L844.315 39.2727H845.77L842.065 49.2727C841.899 49.7235 841.692 50.0966 841.446 50.392C841.2 50.6913 840.914 50.9129 840.588 51.0568C840.266 51.2008 839.902 51.2727 839.497 51.2727Z" fill="#1C1C1C"/>
<path d="M876.59 38.295L872 42.875L867.41 38.295L866 39.705L872 45.705L878 39.705L876.59 38.295Z" fill="#8B96A5"/>
<path d="M326.5 28C326.5 24.9624 328.962 22.5 332 22.5H746.5V61.5H332C328.962 61.5 326.5 59.0376 326.5 56V28Z" fill="white" stroke="#0D6EFD"/>
<path d="M343.773 39.2727C343.705 38.697 343.428 38.25 342.943 37.9318C342.458 37.6136 341.864 37.4545 341.159 37.4545C340.644 37.4545 340.193 37.5379 339.807 37.7045C339.424 37.8712 339.125 38.1004 338.909 38.392C338.697 38.6837 338.591 39.0152 338.591 39.3864C338.591 39.697 338.665 39.964 338.812 40.1875C338.964 40.4072 339.157 40.5909 339.392 40.7386C339.627 40.8826 339.873 41.0019 340.131 41.0966C340.388 41.1875 340.625 41.2614 340.841 41.3182L342.023 41.6364C342.326 41.7159 342.663 41.8258 343.034 41.9659C343.409 42.1061 343.767 42.2973 344.108 42.5398C344.453 42.7784 344.737 43.0852 344.96 43.4602C345.184 43.8352 345.295 44.2955 345.295 44.8409C345.295 45.4697 345.131 46.0379 344.801 46.5455C344.475 47.053 343.998 47.4564 343.369 47.7557C342.744 48.0549 341.985 48.2045 341.091 48.2045C340.258 48.2045 339.536 48.0701 338.926 47.8011C338.32 47.5322 337.843 47.1572 337.494 46.6761C337.15 46.1951 336.955 45.6364 336.909 45H338.364C338.402 45.4394 338.549 45.803 338.807 46.0909C339.068 46.375 339.398 46.5871 339.795 46.7273C340.197 46.8636 340.629 46.9318 341.091 46.9318C341.629 46.9318 342.112 46.8447 342.54 46.6705C342.968 46.4924 343.307 46.2462 343.557 45.9318C343.807 45.6136 343.932 45.2424 343.932 44.8182C343.932 44.4318 343.824 44.1174 343.608 43.875C343.392 43.6326 343.108 43.4356 342.756 43.2841C342.403 43.1326 342.023 43 341.614 42.8864L340.182 42.4773C339.273 42.2159 338.553 41.8428 338.023 41.358C337.492 40.8731 337.227 40.2386 337.227 39.4545C337.227 38.803 337.403 38.2348 337.756 37.75C338.112 37.2614 338.589 36.8826 339.188 36.6136C339.79 36.3409 340.462 36.2045 341.205 36.2045C341.955 36.2045 342.621 36.339 343.205 36.608C343.788 36.8731 344.25 37.2367 344.591 37.6989C344.936 38.161 345.117 38.6856 345.136 39.2727H343.773ZM351.089 48.1818C350.249 48.1818 349.523 47.9962 348.913 47.625C348.307 47.25 347.839 46.7273 347.51 46.0568C347.184 45.3826 347.021 44.5985 347.021 43.7045C347.021 42.8106 347.184 42.0227 347.51 41.3409C347.839 40.6553 348.298 40.1212 348.885 39.7386C349.476 39.3523 350.165 39.1591 350.953 39.1591C351.408 39.1591 351.857 39.2348 352.3 39.3864C352.743 39.5379 353.146 39.7841 353.51 40.125C353.874 40.4621 354.163 40.9091 354.379 41.4659C354.595 42.0227 354.703 42.7083 354.703 43.5227V44.0909H347.976V42.9318H353.339C353.339 42.4394 353.241 42 353.044 41.6136C352.851 41.2273 352.574 40.9223 352.214 40.6989C351.858 40.4754 351.438 40.3636 350.953 40.3636C350.419 40.3636 349.957 40.4962 349.567 40.7614C349.18 41.0227 348.883 41.3636 348.675 41.7841C348.466 42.2045 348.362 42.6553 348.362 43.1364V43.9091C348.362 44.5682 348.476 45.1269 348.703 45.5852C348.934 46.0398 349.254 46.3864 349.663 46.625C350.072 46.8598 350.548 46.9773 351.089 46.9773C351.442 46.9773 351.76 46.928 352.044 46.8295C352.332 46.7273 352.58 46.5758 352.788 46.375C352.997 46.1705 353.158 45.9167 353.271 45.6136L354.567 45.9773C354.43 46.4167 354.201 46.803 353.879 47.1364C353.557 47.4659 353.16 47.7235 352.686 47.9091C352.213 48.0909 351.68 48.1818 351.089 48.1818ZM359.311 48.2045C358.758 48.2045 358.256 48.1004 357.805 47.892C357.355 47.6799 356.997 47.375 356.732 46.9773C356.466 46.5758 356.334 46.0909 356.334 45.5227C356.334 45.0227 356.432 44.6174 356.629 44.3068C356.826 43.9924 357.089 43.7462 357.419 43.5682C357.749 43.3902 358.112 43.2576 358.51 43.1705C358.911 43.0795 359.315 43.0076 359.72 42.9545C360.25 42.8864 360.68 42.8352 361.01 42.8011C361.343 42.7633 361.586 42.7008 361.737 42.6136C361.893 42.5265 361.97 42.375 361.97 42.1591V42.1136C361.97 41.553 361.817 41.1174 361.51 40.8068C361.207 40.4962 360.747 40.3409 360.129 40.3409C359.489 40.3409 358.987 40.4811 358.624 40.7614C358.26 41.0417 358.004 41.3409 357.857 41.6591L356.584 41.2045C356.811 40.6742 357.114 40.2614 357.493 39.9659C357.875 39.6667 358.292 39.4583 358.743 39.3409C359.197 39.2197 359.644 39.1591 360.084 39.1591C360.364 39.1591 360.686 39.1932 361.05 39.2614C361.417 39.3258 361.771 39.4602 362.112 39.6648C362.457 39.8693 362.743 40.178 362.97 40.5909C363.197 41.0038 363.311 41.5568 363.311 42.25V48H361.97V46.8182H361.902C361.811 47.0076 361.66 47.2102 361.447 47.4261C361.235 47.642 360.953 47.8258 360.601 47.9773C360.249 48.1288 359.819 48.2045 359.311 48.2045ZM359.516 47C360.046 47 360.493 46.8958 360.857 46.6875C361.224 46.4792 361.5 46.2102 361.686 45.8807C361.875 45.5511 361.97 45.2045 361.97 44.8409V43.6136C361.913 43.6818 361.788 43.7443 361.595 43.8011C361.406 43.8542 361.186 43.9015 360.936 43.9432C360.69 43.9811 360.449 44.0152 360.214 44.0455C359.983 44.072 359.796 44.0947 359.652 44.1136C359.304 44.1591 358.978 44.233 358.675 44.3352C358.375 44.4337 358.133 44.5833 357.947 44.7841C357.766 44.9811 357.675 45.25 357.675 45.5909C357.675 46.0568 357.847 46.4091 358.192 46.6477C358.54 46.8826 358.982 47 359.516 47ZM365.759 48V39.2727H367.054V40.5909H367.145C367.304 40.1591 367.592 39.8087 368.009 39.5398C368.425 39.2708 368.895 39.1364 369.418 39.1364C369.516 39.1364 369.639 39.1383 369.787 39.142C369.935 39.1458 370.046 39.1515 370.122 39.1591V40.5227C370.077 40.5114 369.973 40.4943 369.81 40.4716C369.651 40.4451 369.482 40.4318 369.304 40.4318C368.88 40.4318 368.501 40.5208 368.168 40.6989C367.838 40.8731 367.577 41.1155 367.384 41.4261C367.194 41.733 367.099 42.0833 367.099 42.4773V48H365.759ZM374.991 48.1818C374.173 48.1818 373.469 47.9886 372.878 47.6023C372.287 47.2159 371.832 46.6837 371.514 46.0057C371.196 45.3277 371.037 44.553 371.037 43.6818C371.037 42.7955 371.2 42.0133 371.526 41.3352C371.855 40.6534 372.313 40.1212 372.901 39.7386C373.491 39.3523 374.181 39.1591 374.969 39.1591C375.582 39.1591 376.135 39.2727 376.628 39.5C377.12 39.7273 377.524 40.0455 377.838 40.4545C378.152 40.8636 378.348 41.3409 378.423 41.8864H377.082C376.98 41.4886 376.753 41.1364 376.401 40.8295C376.052 40.5189 375.582 40.3636 374.991 40.3636C374.469 40.3636 374.01 40.5 373.616 40.7727C373.226 41.0417 372.921 41.4223 372.702 41.9148C372.486 42.4034 372.378 42.9773 372.378 43.6364C372.378 44.3106 372.484 44.8977 372.696 45.3977C372.912 45.8977 373.215 46.286 373.605 46.5625C373.999 46.839 374.461 46.9773 374.991 46.9773C375.34 46.9773 375.656 46.9167 375.94 46.7955C376.224 46.6742 376.465 46.5 376.662 46.2727C376.859 46.0455 376.999 45.7727 377.082 45.4545H378.423C378.348 45.9697 378.16 46.4337 377.861 46.8466C377.565 47.2557 377.173 47.5814 376.685 47.8239C376.2 48.0625 375.635 48.1818 374.991 48.1818ZM381.724 42.75V48H380.384V36.3636H381.724V40.6364H381.838C382.043 40.1856 382.349 39.8277 382.759 39.5625C383.171 39.2936 383.721 39.1591 384.406 39.1591C385.001 39.1591 385.522 39.2784 385.969 39.517C386.416 39.7519 386.762 40.1136 387.009 40.6023C387.259 41.0871 387.384 41.7045 387.384 42.4545V48H386.043V42.5455C386.043 41.8523 385.863 41.3163 385.503 40.9375C385.147 40.5549 384.652 40.3636 384.02 40.3636C383.58 40.3636 383.187 40.4564 382.838 40.642C382.493 40.8277 382.221 41.0985 382.02 41.4545C381.823 41.8106 381.724 42.2424 381.724 42.75Z" fill="#8B96A5"/>
<path fill-rule="evenodd" clip-rule="evenodd" d="M891 22H985C988.314 22 991 24.6863 991 28V56C991 59.3137 988.314 62 985 62H891V22Z" fill="url(#paint0_linear_1_1051)"/>
<path d="M921.961 39.4205C921.9 38.8826 921.65 38.4659 921.211 38.1705C920.772 37.8712 920.219 37.7216 919.552 37.7216C919.075 37.7216 918.662 37.7973 918.313 37.9489C917.965 38.0966 917.694 38.3011 917.501 38.5625C917.311 38.8201 917.217 39.1136 917.217 39.4432C917.217 39.7197 917.281 39.9583 917.41 40.1591C917.542 40.3598 917.715 40.5284 917.927 40.6648C918.143 40.7973 918.374 40.9091 918.62 41C918.866 41.0871 919.103 41.1591 919.33 41.2159L920.467 41.5114C920.838 41.6023 921.219 41.7254 921.609 41.8807C921.999 42.036 922.361 42.2405 922.694 42.4943C923.027 42.7481 923.296 43.0625 923.501 43.4375C923.709 43.8125 923.813 44.2614 923.813 44.7841C923.813 45.4432 923.643 46.0284 923.302 46.5398C922.965 47.0511 922.474 47.4545 921.83 47.75C921.19 48.0455 920.415 48.1932 919.506 48.1932C918.635 48.1932 917.881 48.0549 917.245 47.7784C916.609 47.5019 916.111 47.1098 915.751 46.6023C915.391 46.0909 915.192 45.4848 915.154 44.7841H916.915C916.95 45.2045 917.086 45.5549 917.325 45.8352C917.567 46.1117 917.876 46.3182 918.251 46.4545C918.629 46.5871 919.044 46.6534 919.495 46.6534C919.991 46.6534 920.433 46.5758 920.819 46.4205C921.209 46.2614 921.516 46.0417 921.739 45.7614C921.963 45.4773 922.075 45.1458 922.075 44.767C922.075 44.4223 921.976 44.1402 921.779 43.9205C921.586 43.7008 921.323 43.5189 920.989 43.375C920.66 43.2311 920.287 43.1042 919.87 42.9943L918.495 42.6193C917.563 42.3655 916.825 41.9924 916.279 41.5C915.737 41.0076 915.467 40.3561 915.467 39.5455C915.467 38.875 915.648 38.2898 916.012 37.7898C916.376 37.2898 916.868 36.9015 917.489 36.625C918.111 36.3447 918.811 36.2045 919.592 36.2045C920.379 36.2045 921.075 36.3428 921.677 36.6193C922.283 36.8958 922.76 37.2765 923.109 37.7614C923.457 38.2424 923.639 38.7955 923.654 39.4205H921.961ZM929.536 48.1761C928.676 48.1761 927.936 47.9924 927.315 47.625C926.697 47.2538 926.22 46.733 925.883 46.0625C925.549 45.3883 925.383 44.5985 925.383 43.6932C925.383 42.7992 925.549 42.0114 925.883 41.3295C926.22 40.6477 926.69 40.1155 927.292 39.733C927.898 39.3504 928.606 39.1591 929.417 39.1591C929.909 39.1591 930.387 39.2405 930.849 39.4034C931.311 39.5663 931.726 39.822 932.093 40.1705C932.46 40.5189 932.75 40.9716 932.962 41.5284C933.174 42.0814 933.281 42.7538 933.281 43.5455V44.1477H926.343V42.875H931.616C931.616 42.428 931.525 42.0322 931.343 41.6875C931.161 41.339 930.906 41.0644 930.576 40.8636C930.25 40.6629 929.868 40.5625 929.428 40.5625C928.951 40.5625 928.534 40.6799 928.178 40.9148C927.826 41.1458 927.553 41.4489 927.36 41.8239C927.171 42.1951 927.076 42.5985 927.076 43.0341V44.0284C927.076 44.6117 927.178 45.108 927.383 45.517C927.591 45.9261 927.881 46.2386 928.252 46.4545C928.623 46.6667 929.057 46.7727 929.553 46.7727C929.875 46.7727 930.169 46.7273 930.434 46.6364C930.699 46.5417 930.928 46.4015 931.121 46.2159C931.315 46.0303 931.462 45.8011 931.565 45.5284L933.173 45.8182C933.044 46.2917 932.813 46.7064 932.479 47.0625C932.15 47.4148 931.735 47.6894 931.235 47.8864C930.739 48.0795 930.173 48.1761 929.536 48.1761ZM937.705 48.1932C937.152 48.1932 936.652 48.0909 936.205 47.8864C935.758 47.678 935.404 47.3769 935.143 46.983C934.885 46.589 934.756 46.1061 934.756 45.5341C934.756 45.0417 934.851 44.6364 935.04 44.3182C935.23 44 935.486 43.7481 935.808 43.5625C936.129 43.3769 936.489 43.2367 936.887 43.142C937.285 43.0473 937.69 42.9754 938.103 42.9261C938.626 42.8655 939.05 42.8163 939.376 42.7784C939.701 42.7367 939.938 42.6705 940.086 42.5795C940.234 42.4886 940.308 42.3409 940.308 42.1364V42.0966C940.308 41.6004 940.167 41.2159 939.887 40.9432C939.611 40.6705 939.198 40.5341 938.648 40.5341C938.076 40.5341 937.626 40.661 937.296 40.9148C936.97 41.1648 936.745 41.4432 936.62 41.75L935.023 41.3864C935.213 40.8561 935.489 40.428 935.853 40.1023C936.22 39.7727 936.643 39.5341 937.12 39.3864C937.597 39.2348 938.099 39.1591 938.626 39.1591C938.974 39.1591 939.344 39.2008 939.734 39.2841C940.128 39.3636 940.495 39.5114 940.836 39.7273C941.181 39.9432 941.463 40.2519 941.683 40.6534C941.902 41.0511 942.012 41.5682 942.012 42.2045V48H940.353V46.8068H940.285C940.175 47.0265 940.01 47.2424 939.79 47.4545C939.571 47.6667 939.289 47.8428 938.944 47.983C938.599 48.1231 938.186 48.1932 937.705 48.1932ZM938.075 46.8295C938.544 46.8295 938.946 46.7367 939.279 46.5511C939.616 46.3655 939.872 46.1231 940.046 45.8239C940.224 45.5208 940.313 45.197 940.313 44.8523V43.7273C940.253 43.7879 940.135 43.8447 939.961 43.8977C939.79 43.947 939.595 43.9905 939.376 44.0284C939.156 44.0625 938.942 44.0947 938.734 44.125C938.525 44.1515 938.351 44.1742 938.211 44.1932C937.881 44.2348 937.58 44.3049 937.308 44.4034C937.039 44.5019 936.823 44.6439 936.66 44.8295C936.501 45.0114 936.421 45.2538 936.421 45.5568C936.421 45.9773 936.576 46.2955 936.887 46.5114C937.198 46.7235 937.594 46.8295 938.075 46.8295ZM944.275 48V39.2727H945.917V40.6591H946.008C946.167 40.1894 946.447 39.8201 946.849 39.5511C947.254 39.2784 947.712 39.142 948.224 39.142C948.33 39.142 948.455 39.1458 948.599 39.1534C948.746 39.161 948.862 39.1705 948.945 39.1818V40.8068C948.877 40.7879 948.756 40.767 948.582 40.7443C948.407 40.7178 948.233 40.7045 948.059 40.7045C947.657 40.7045 947.299 40.7898 946.985 40.9602C946.674 41.1269 946.428 41.3598 946.246 41.6591C946.065 41.9545 945.974 42.2917 945.974 42.6705V48H944.275ZM953.779 48.1761C952.934 48.1761 952.207 47.9848 951.597 47.6023C950.991 47.2159 950.525 46.6837 950.2 46.0057C949.874 45.3277 949.711 44.5511 949.711 43.6761C949.711 42.7898 949.878 42.0076 950.211 41.3295C950.544 40.6477 951.014 40.1155 951.62 39.733C952.226 39.3504 952.94 39.1591 953.762 39.1591C954.425 39.1591 955.016 39.2822 955.535 39.5284C956.054 39.7708 956.472 40.1117 956.79 40.5511C957.112 40.9905 957.304 41.5038 957.364 42.0909H955.711C955.62 41.6818 955.412 41.3295 955.086 41.0341C954.764 40.7386 954.332 40.5909 953.79 40.5909C953.317 40.5909 952.902 40.7159 952.546 40.9659C952.194 41.2121 951.919 41.5644 951.722 42.0227C951.525 42.4773 951.427 43.0152 951.427 43.6364C951.427 44.2727 951.523 44.822 951.717 45.2841C951.91 45.7462 952.183 46.1042 952.535 46.358C952.891 46.6117 953.309 46.7386 953.79 46.7386C954.112 46.7386 954.404 46.6799 954.665 46.5625C954.931 46.4413 955.152 46.2689 955.33 46.0455C955.512 45.822 955.639 45.553 955.711 45.2386H957.364C957.304 45.803 957.12 46.3068 956.813 46.75C956.506 47.1932 956.095 47.5417 955.58 47.7955C955.069 48.0492 954.469 48.1761 953.779 48.1761ZM960.88 42.8182V48H959.181V36.3636H960.857V40.6932H960.965C961.17 40.2235 961.482 39.8504 961.903 39.5739C962.323 39.2973 962.872 39.1591 963.55 39.1591C964.149 39.1591 964.672 39.2822 965.119 39.5284C965.569 39.7746 965.918 40.142 966.164 40.6307C966.414 41.1155 966.539 41.7216 966.539 42.4489V48H964.84V42.6534C964.84 42.0133 964.675 41.517 964.346 41.1648C964.016 40.8087 963.558 40.6307 962.971 40.6307C962.569 40.6307 962.21 40.7159 961.891 40.8864C961.577 41.0568 961.329 41.3068 961.147 41.6364C960.969 41.9621 960.88 42.3561 960.88 42.8182Z" fill="white"/>
<path d="M179.213 52.8061H188.103C192.776 52.8061 195.265 50.3679 195.265 47.056C195.265 43.9778 193.06 42.1186 190.693 42.0069V41.8037C192.857 41.316 194.452 39.782 194.452 37.3336C194.452 34.2147 192.136 32 187.544 32H179.213V52.8061ZM183.612 49.2098V43.6831H187.3C189.413 43.6831 190.724 44.9022 190.724 46.6192C190.724 48.1837 189.657 49.2098 187.199 49.2098H183.612ZM183.612 40.7065V35.5557H186.955C188.905 35.5557 190.013 36.5615 190.013 38.0651C190.013 39.7109 188.672 40.7065 186.873 40.7065H183.612Z" fill="#8CB7F5"/>
<path d="M197.518 52.8061H201.846V43.9778C201.846 42.0577 203.248 40.737 205.158 40.737C205.757 40.737 206.58 40.8385 206.986 40.9706V37.1304C206.6 37.039 206.062 36.978 205.625 36.978C203.878 36.978 202.445 37.994 201.876 39.9242H201.714V37.2015H197.518V52.8061Z" fill="#8CB7F5"/>
<path d="M212.699 53.1008C215.005 53.1008 216.498 52.095 217.26 50.6422H217.382V52.8061H221.486V42.2812C221.486 38.5629 218.337 36.9984 214.862 36.9984C211.124 36.9984 208.665 38.7864 208.066 41.631L212.069 41.9561C212.363 40.9198 213.288 40.1579 214.842 40.1579C216.315 40.1579 217.158 40.8995 217.158 42.1796V42.2405C217.158 43.2463 216.092 43.3784 213.379 43.6425C210.291 43.927 207.517 44.9632 207.517 48.4478C207.517 51.5362 209.722 53.1008 212.699 53.1008ZM213.938 50.1139C212.607 50.1139 211.652 49.4942 211.652 48.3056C211.652 47.0865 212.658 46.4871 214.182 46.2737C215.127 46.1417 216.671 45.9182 217.189 45.5728V47.2287C217.189 48.8644 215.838 50.1139 213.938 50.1139Z" fill="#8CB7F5"/>
<path d="M228.644 43.7847C228.654 41.7732 229.853 40.5947 231.6 40.5947C233.337 40.5947 234.384 41.7326 234.373 43.6425V52.8061H238.701V42.8704C238.701 39.2334 236.568 36.9984 233.317 36.9984C231.001 36.9984 229.324 38.1362 228.623 39.9547H228.44V37.2015H224.316V52.8061H228.644V43.7847Z" fill="#8CB7F5"/>
<path d="M247.334 53.0601C249.854 53.0601 251.164 51.6074 251.764 50.307H251.946V52.8061H256.213V32H251.896V39.8226H251.764C251.185 38.5527 249.935 36.9984 247.324 36.9984C243.9 36.9984 241.005 39.6601 241.005 45.0242C241.005 50.246 243.778 53.0601 247.334 53.0601ZM248.706 49.6161C246.582 49.6161 245.424 47.7265 245.424 45.0038C245.424 42.3015 246.562 40.4423 248.706 40.4423C250.809 40.4423 251.987 42.2202 251.987 45.0038C251.987 47.7875 250.788 49.6161 248.706 49.6161Z" fill="#8CB7F5"/>
<g opacity="0.8">
<path fill-rule="evenodd" clip-rule="evenodd" d="M143.468 22.9131H166.185C169.949 22.9131 173 26.2856 173 30.4457V55.5544C173 59.7145 169.949 63.087 166.185 63.087H143.468C139.704 63.087 136.652 59.7145 136.652 55.5544L136.652 30.4457C136.652 26.2856 139.704 22.9131 143.468 22.9131Z" fill="#0D6EFD" fill-opacity="0.2"/>
<path fill-rule="evenodd" clip-rule="evenodd" d="M137.13 22.9131H161.044C165.006 22.9131 168.217 26.2856 168.217 30.4457V55.5544C168.217 59.7145 165.006 63.087 161.044 63.087H137.13C133.168 63.087 129.957 59.7145 129.957 55.5544L129.957 30.4457C129.957 26.2856 133.168 22.9131 137.13 22.9131Z" fill="#0D6EFD"/>
<g opacity="0.7">
<path opacity="0.3" fill-rule="evenodd" clip-rule="evenodd" d="M144.29 39.3563H143.309C143.259 39.3563 143.184 39.4266 143.181 39.4731L142.458 51.1478L155.954 51.1452L155.225 39.4731C155.222 39.4284 155.145 39.3563 155.097 39.3563H154.116V41.3216C154.116 41.8643 153.676 42.3042 153.133 42.3042C152.591 42.3042 152.151 41.8643 152.151 41.3216V39.3563H146.255V41.3216C146.255 41.8643 145.815 42.3042 145.272 42.3042C144.73 42.3042 144.29 41.8643 144.29 41.3216V39.3563Z" fill="white"/>
<path fill-rule="evenodd" clip-rule="evenodd" d="M149.203 32.4783C151.915 32.4783 154.116 34.6796 154.116 37.3891L155.097 37.3914C156.183 37.3914 157.119 38.2704 157.186 39.3508L157.924 51.1539C157.992 52.2361 157.17 53.1133 156.086 53.1133H142.32C141.237 53.1133 140.414 52.2344 140.482 51.1539L141.22 39.3508C141.287 38.2686 142.221 37.3914 143.309 37.3914H144.29C144.29 34.6781 146.493 32.4783 149.203 32.4783ZM152.151 37.3915C152.151 35.765 150.83 34.4436 149.203 34.4436C147.578 34.4436 146.255 35.7642 146.255 37.3892L152.151 37.3915ZM144.29 39.3566H143.309C143.259 39.3566 143.184 39.4269 143.181 39.4733L142.459 51.148L155.955 51.1455L155.225 39.4733C155.222 39.4286 155.145 39.3566 155.097 39.3566H154.116V41.3218C154.116 41.8645 153.676 42.3044 153.134 42.3044C152.591 42.3044 152.151 41.8645 152.151 41.3218V39.3566H146.255V41.3218C146.255 41.8645 145.815 42.3044 145.273 42.3044C144.73 42.3044 144.29 41.8645 144.29 41.3218V39.3566Z" fill="white"/>
</g>
</g>
<defs>
<linearGradient id="paint0_linear_1_1051" x1="941" y1="22" x2="941" y2="62" gradientUnits="userSpaceOnUse">
<stop stop-color="#127FFF"/>
<stop offset="1" stop-color="#0067FF"/>
</linearGradient>
</defs>
</svg>
